<svg width="23" height="23" viewBox="0 0 23 23" fill="none" xmlns="http://www.w3.org/2000/svg">
<path d="M11.5 8.17469C9.85135 8.17469 8.50594 9.5201 8.50594 11.1687C8.50594 12.8174 9.85135 14.1628 11.5 14.1628C13.1486 14.1628 14.494 12.8174 14.494 11.1687C14.494 9.5201 13.1486 8.17469 11.5 8.17469ZM20.4799 11.1687C20.4799 9.92889 20.4911 8.70028 20.4215 7.46268C20.3518 6.02518 20.0239 4.7494 18.9727 3.69823C17.9193 2.64481 16.6458 2.31913 15.2083 2.2495C13.9684 2.17987 12.7398 2.1911 11.5022 2.1911C10.2624 2.1911 9.03377 2.17987 7.79618 2.2495C6.35868 2.31913 5.08289 2.64705 4.03172 3.69823C2.9783 4.75164 2.65262 6.02518 2.58299 7.46268C2.51336 8.70252 2.52459 9.93114 2.52459 11.1687C2.52459 12.4063 2.51336 13.6372 2.58299 14.8748C2.65262 16.3123 2.98055 17.5881 4.03172 18.6392C5.08514 19.6927 6.35868 20.0183 7.79618 20.088C9.03602 20.1576 10.2646 20.1464 11.5022 20.1464C12.7421 20.1464 13.9707 20.1576 15.2083 20.088C16.6458 20.0183 17.9216 19.6904 18.9727 18.6392C20.0262 17.5858 20.3518 16.3123 20.4215 14.8748C20.4933 13.6372 20.4799 12.4086 20.4799 11.1687ZM11.5 15.7755C8.95067 15.7755 6.89325 13.7181 6.89325 11.1687C6.89325 8.61942 8.95067 6.562 11.5 6.562C14.0493 6.562 16.1067 8.61942 16.1067 11.1687C16.1067 13.7181 14.0493 15.7755 11.5 15.7755ZM16.2954 7.4492C15.7002 7.4492 15.2195 6.96854 15.2195 6.37332C15.2195 5.77811 15.7002 5.29745 16.2954 5.29745C16.8906 5.29745 17.3713 5.77811 17.3713 6.37332C17.3715 6.51466 17.3437 6.65464 17.2897 6.78525C17.2357 6.91587 17.1565 7.03454 17.0566 7.13448C16.9566 7.23442 16.8379 7.31366 16.7073 7.36767C16.5767 7.42167 16.4367 7.44938 16.2954 7.4492Z" fill="#D5D5D5"/>
</svg>
