<svg width="61" height="70" viewBox="0 0 61 70" fill="none" xmlns="http://www.w3.org/2000/svg">
<mask id="mask0_43_10" style="mask-type:alpha" maskUnits="userSpaceOnUse" x="0" y="0" width="60" height="69">
<path d="M27.2863 0.486218C26.3594 0.54335 25.4375 0.683886 24.5365 0.91283C23.7137 1.12176 22.8989 1.3653 22.0786 1.5859C14.4388 3.56842 8.60456 7.98343 4.46162 14.7129C0.719434 20.7897 -0.551568 27.3758 0.21245 34.4005C0.87607 40.5011 3.6172 45.6759 7.51686 50.2856C10.9849 54.3854 15.0721 57.7791 19.5533 60.7262C24.2015 63.783 29.1514 66.1746 34.4595 67.831C35.7701 68.2397 37.1165 68.4874 38.4612 68.7438C38.7487 68.7985 39.0615 68.851 39.2598 68.557C39.4227 68.316 39.3586 68.067 39.2503 67.8377C39.134 67.592 38.9707 67.3714 38.797 67.1617C37.9055 66.0862 37.2544 64.873 36.7062 63.5961C36.0605 62.0911 36.2921 60.4314 38.4221 59.8776C43.9772 58.4326 48.5801 55.3658 52.3452 51.0776C57.7633 44.9061 60.2953 37.6457 59.8662 29.4625C59.4113 20.7914 55.8945 13.486 49.3308 7.77408C43.6002 2.78776 36.9407 0.416992 29.5126 0.416992C28.7777 0.416992 28.0362 0.440345 27.2863 0.486218Z" fill="white"/>
</mask>
<g mask="url(#mask0_43_10)">
<path d="M61.9953 -1.66821L61.9941 28.9683L53.4128 28.9034L53.3253 28.903C51.2961 28.903 49.304 29.4527 47.5593 30.4952L45.4651 31.7475L43.2826 29.2863C43.1068 29.089 42.9102 28.9097 42.6965 28.7529C41.8887 28.1595 40.8989 27.9172 39.9095 28.0698C38.9197 28.2225 38.0482 28.7517 37.4559 29.5603L36.087 31.4285L34.2398 24.6769C33.9157 23.4905 32.9709 22.5814 31.772 22.3049C30.9046 22.1064 30.0115 22.2557 29.2566 22.729C28.5018 23.2019 27.9769 23.9409 27.7773 24.8091L26.1114 32.062L25.0858 27.4556C24.7904 26.1323 23.8014 25.0681 22.5054 24.679C21.5452 24.39 20.5317 24.4926 19.6502 24.968C18.7683 25.443 18.1238 26.2328 17.8355 27.1932L16.6133 31.2663L15.8022 28.8105C15.2927 27.2704 13.8625 26.2362 12.2424 26.2362H9.99788C8.84769 26.2362 7.91496 27.1695 7.91496 28.3213C7.91496 29.4731 8.84769 30.4064 9.99788 30.4064H11.9413L14.3166 37.5967C14.7499 38.9049 16.1667 39.6188 17.4756 39.1851C18.2484 38.9291 18.8495 38.3094 19.0832 37.5295L21.3665 29.9214L23.6465 40.1593C23.7919 40.8115 24.1818 41.3682 24.7458 41.7268C25.1512 41.985 25.6119 42.1176 26.0814 42.1176C26.2639 42.1176 26.4484 42.0976 26.6309 42.0567C27.5632 41.8482 28.3056 41.1113 28.5222 40.1755L31.0959 28.9723L32.5252 34.195C32.7597 35.0545 33.3154 35.771 34.0886 36.2126C34.8618 36.6534 35.7604 36.7664 36.6189 36.532C37.3413 36.3344 37.9833 35.8919 38.4265 35.2872L40.5103 32.4427L42.3499 34.5166C43.6776 36.0116 45.8846 36.3527 47.6006 35.3277L49.6947 34.0758C50.8087 33.4098 52.0622 33.0645 53.3807 33.0737L61.9941 33.1385L61.9953 70.8714H-2.08301V-1.66821H61.9953Z" fill="#00BF69"/>
</g>
</svg>
