<svg width="117" height="43" viewBox="0 0 117 43" fill="none" xmlns="http://www.w3.org/2000/svg">
<path d="M62.096 17.4574C62.0663 16.6569 61.9266 15.9532 61.6772 15.3453C61.4271 14.7382 61.0964 14.2338 60.6853 13.8336C60.2736 13.4333 59.8038 13.1374 59.2748 12.9442C58.7458 12.7518 58.2019 12.6553 57.6439 12.6553C56.4978 12.6553 55.5059 13.0774 54.6684 13.9223C53.8308 14.7671 53.3529 15.9455 53.2358 17.4574H62.096ZM53.0596 21.1032C53.1477 22.764 53.6251 24.0828 54.4921 25.0611C55.3586 26.0391 56.4978 26.5282 57.9083 26.5282C58.8484 26.5282 59.6783 26.3135 60.3988 25.8836C61.1185 25.4543 61.5815 24.8538 61.7874 24.0828H67.6941C67.0179 26.3358 65.8428 28.0701 64.1677 29.2851C62.4927 30.5009 60.4938 31.1082 58.1729 31.1082C50.9436 31.1082 47.3291 27.1361 47.3291 19.1917C47.3291 17.502 47.5638 15.9755 48.0343 14.6116C48.5041 13.2483 49.1873 12.0771 50.084 11.0988C50.9802 10.1205 52.0745 9.37219 53.3681 8.85318C54.6607 8.33495 56.1451 8.0752 57.8202 8.0752C61.1703 8.0752 63.7048 9.15777 65.424 11.3211C67.1433 13.4853 68.0027 16.746 68.0027 21.1032H53.0596Z" fill="#00070F"/>
<path d="M83.1658 19.814C82.8717 20.1107 82.4456 20.3476 81.8877 20.5254C81.3292 20.7034 80.5211 20.8966 79.4632 21.1033C77.817 21.4302 76.6862 21.8449 76.0691 22.3488C75.452 22.853 75.1434 23.5789 75.1434 24.527C75.1434 26.1581 76.0691 26.9727 77.9204 26.9727C78.6546 26.9727 79.3377 26.8472 79.9701 26.5951C80.6014 26.3433 81.1451 26.0023 81.6009 25.5725C82.0563 25.1431 82.4233 24.6385 82.7031 24.0603C82.9819 23.4824 83.1216 22.8676 83.1216 22.2151L83.1658 19.814ZM83.5625 30.5301C83.3862 29.9673 83.2684 29.3148 83.21 28.5737C82.5337 29.3448 81.6375 29.9596 80.5211 30.4189C79.404 30.878 78.1111 31.1083 76.642 31.1083C74.1441 31.1083 72.3146 30.5524 71.1541 29.4409C69.9927 28.3291 69.413 26.8841 69.413 25.1055C69.413 23.5344 69.6623 22.2817 70.1624 21.348C70.6617 20.4145 71.3524 19.6805 72.2341 19.1469C73.1156 18.6133 74.1662 18.2209 75.3859 17.9688C76.6049 17.717 77.9349 17.4872 79.3748 17.2792C80.8145 17.0725 81.7843 16.7981 82.2843 16.4569C82.7836 16.1164 83.0335 15.5606 83.0335 14.7895C83.0335 14.0778 82.7031 13.5222 82.0418 13.1221C81.3808 12.7217 80.4914 12.5216 79.3748 12.5216C78.0525 12.5216 77.1047 12.8183 76.5318 13.411C75.9591 14.0043 75.5988 14.7895 75.452 15.7678H70.1182C70.1471 14.6417 70.331 13.6042 70.6693 12.6553C71.0068 11.7067 71.5507 10.8918 72.3002 10.2097C73.0496 9.528 74.0263 9.00208 75.2313 8.63115C76.436 8.26072 77.9052 8.07526 79.6394 8.07526C81.3434 8.07526 82.7912 8.26841 83.9813 8.65318C85.1715 9.03897 86.1261 9.5946 86.8466 10.3206C87.5663 11.0473 88.0877 11.9514 88.4115 13.0329C88.7345 14.1155 88.8963 15.3382 88.8963 16.7015V30.5301H83.5625Z" fill="#00070F"/>
<path d="M103.223 8.07568C102.634 8.07568 102.06 8.10642 101.504 8.16534C100.945 8.22426 100.394 8.36516 99.8509 8.58546C99.3048 8.80833 98.7766 9.12854 98.2636 9.54354C97.7481 9.95854 97.2554 10.5349 96.7856 11.2778V8.65207H91.4094V30.529H97.1386V19.1474C97.1386 15.6199 98.8884 13.8551 102.385 13.8551C102.675 13.8551 102.962 13.8677 103.251 13.8959V8.07568H103.223Z" fill="#00070F"/>
<path d="M116.315 2.79868V30.5291H110.583V13.9856H105.763V7.87571C106.522 7.83216 107.188 7.7402 107.762 7.60187C108.615 7.39411 109.313 7.0739 109.857 6.64379C110.4 6.21599 110.812 5.68059 111.091 5.04273C111.37 4.40717 111.553 3.65915 111.642 2.79868H116.315Z" fill="#00070F"/>
<mask id="mask0_18_8" style="mask-type:alpha" maskUnits="userSpaceOnUse" x="0" y="0" width="37" height="43">
<path d="M16.634 0.298689C16.069 0.333784 15.507 0.420113 14.9576 0.560751C14.4561 0.689092 13.9594 0.838696 13.4593 0.97421C8.80207 2.19204 5.24545 4.90412 2.71988 9.03794C0.43862 12.7708 -0.336192 16.8165 0.129559 21.1317C0.534107 24.8792 2.20512 28.0581 4.58238 30.8898C6.69654 33.4082 9.18808 35.4929 11.9199 37.3032C14.7535 39.181 17.7709 40.6501 21.0068 41.6676C21.8058 41.9187 22.6265 42.0708 23.4463 42.2284C23.6215 42.2619 23.8122 42.2942 23.9331 42.1136C24.0324 41.9655 23.9933 41.8126 23.9273 41.6717C23.8564 41.5208 23.7569 41.3853 23.651 41.2565C23.1075 40.5958 22.7106 39.8506 22.3764 39.0662C21.9828 38.1417 22.124 37.1221 23.4224 36.7819C26.8089 35.8943 29.6148 34.0104 31.9101 31.3762C35.213 27.5852 36.7565 23.1252 36.4949 18.0984C36.2176 12.7719 34.0737 8.28428 30.0725 4.77552C26.5791 1.71249 22.5194 0.256165 17.9911 0.256165C17.5431 0.256165 17.0911 0.27051 16.634 0.298689Z" fill="white"/>
</mask>
<g mask="url(#mask0_18_8)">
<path d="M37.7928 -1.02469L37.7921 17.7949L32.5608 17.755L32.5075 17.7548C31.2705 17.7548 30.0561 18.0924 28.9925 18.7328L27.7159 19.5021L26.3855 17.9902C26.2783 17.869 26.1584 17.7589 26.0281 17.6626C25.5357 17.298 24.9323 17.1492 24.3292 17.243C23.7258 17.3367 23.1945 17.6618 22.8334 18.1585L21.9989 19.3062L20.8729 15.1588C20.6753 14.43 20.0993 13.8715 19.3685 13.7017C18.8397 13.5797 18.2953 13.6714 17.8351 13.9622C17.3749 14.2527 17.055 14.7066 16.9333 15.24L15.9177 19.6953L15.2925 16.8656C15.1125 16.0528 14.5096 15.399 13.7195 15.16C13.1342 14.9825 12.5163 15.0455 11.9789 15.3376C11.4413 15.6293 11.0484 16.1145 10.8727 16.7045L10.1276 19.2065L9.63316 17.6979C9.32257 16.7519 8.45075 16.1166 7.46313 16.1166H6.09483C5.39366 16.1166 4.82506 16.6899 4.82506 17.3974C4.82506 18.105 5.39366 18.6783 6.09483 18.6783H7.27952L8.72756 23.0952C8.99167 23.8988 9.85537 24.3373 10.6533 24.0709C11.1244 23.9136 11.4908 23.533 11.6333 23.0539L13.0252 18.3804L14.4151 24.6693C14.5037 25.07 14.7414 25.412 15.0853 25.6323C15.3324 25.7908 15.6133 25.8723 15.8995 25.8723C16.0107 25.8723 16.1232 25.86 16.2344 25.8349C16.8028 25.7068 17.2553 25.2542 17.3874 24.6793L18.9563 17.7973L19.8276 21.0056C19.9706 21.5336 20.3094 21.9737 20.7807 22.2449C21.252 22.5157 21.7998 22.5851 22.3232 22.4412C22.7636 22.3197 23.1549 22.0479 23.4251 21.6765L24.6954 19.9292L25.8169 21.2031C26.6262 22.1215 27.9717 22.331 29.0177 21.7013L30.2943 20.9323C30.9734 20.5232 31.7375 20.3111 32.5413 20.3167L37.7921 20.3566L37.7928 43.5353H-1.26978V-1.02469H37.7928Z" fill="#00BF69"/>
</g>
</svg>
