<svg width="24" height="26" viewBox="0 0 24 26" fill="none" xmlns="http://www.w3.org/2000/svg">
<path d="M1.60007 0.866664L2.03687 0.117864C1.90516 0.0410075 1.7555 0.000263262 1.60301 -0.000254404C1.45051 -0.000772071 1.30059 0.0389551 1.16836 0.114916C1.03613 0.190876 0.926285 0.300381 0.849915 0.432373C0.773545 0.564365 0.733353 0.714171 0.733398 0.866664H1.60007ZM1.60007 25.1333H0.733398C0.733353 25.2858 0.773545 25.4356 0.849915 25.5676C0.926285 25.6996 1.03613 25.8091 1.16836 25.8851C1.30059 25.961 1.45051 26.0008 1.60301 26.0002C1.7555 25.9997 1.90516 25.959 2.03687 25.8821L1.60007 25.1333ZM22.4001 13L22.8369 13.7488C22.9678 13.6725 23.0764 13.5632 23.1519 13.4318C23.2274 13.3004 23.2672 13.1515 23.2672 13C23.2672 12.8485 23.2274 12.6996 23.1519 12.5682C23.0764 12.4368 22.9678 12.3275 22.8369 12.2512L22.4001 13ZM0.733398 0.866664V25.1333H2.46673V0.866664H0.733398ZM2.03687 25.8821L22.8369 13.7488L21.9633 12.2512L1.16327 24.3845L2.03687 25.8821ZM22.8369 12.2512L2.03687 0.117864L1.16327 1.61546L21.9633 13.7488L22.8369 12.2512ZM2.17033 22.3184L16.037 10.1851L14.8965 8.8816L1.0298 21.0149L2.17033 22.3184ZM1.0298 4.98506L14.8965 17.1184L16.037 15.8149L2.17033 3.6816L1.0298 4.98506Z" fill="white"/>
</svg>
